<?xml version="1.0" encoding="UTF-8" standalone="no"?>
<!-- Created with Inkscape (http://www.inkscape.org/) -->

<svg
   xmlns:dc="http://purl.org/dc/elements/1.1/"
   xmlns:cc="http://creativecommons.org/ns#"
   xmlns:rdf="http://www.w3.org/1999/02/22-rdf-syntax-ns#"
   xmlns:svg="http://www.w3.org/2000/svg"
   xmlns="http://www.w3.org/2000/svg"
   xmlns:sodipodi="http://sodipodi.sourceforge.net/DTD/sodipodi-0.dtd"
   xmlns:inkscape="http://www.inkscape.org/namespaces/inkscape"
   width="38.3214mm"
   height="35.110992mm"
   viewBox="0 0 135.78449 124.40903"
   id="svg2"
   version="1.1"
   inkscape:version="0.91 r13725"
   sodipodi:docname="Icon-Lösung.svg"
   inkscape:export-filename="/home/birgit/Dokumente/Brahma neu/Schule/moodle-Beratung/Lösung-Icon.png"
   inkscape:export-xdpi="30.171288"
   inkscape:export-ydpi="30.171288">
  <defs
     id="defs4" />
  <sodipodi:namedview
     id="base"
     pagecolor="#ffffff"
     bordercolor="#666666"
     borderopacity="1.0"
     inkscape:pageopacity="0.0"
     inkscape:pageshadow="2"
     inkscape:zoom="0.26256681"
     inkscape:cx="-420.54833"
     inkscape:cy="528.55468"
     inkscape:document-units="px"
     inkscape:current-layer="layer1"
     showgrid="false"
     inkscape:window-width="1366"
     inkscape:window-height="687"
     inkscape:window-x="341"
     inkscape:window-y="1152"
     inkscape:window-maximized="1"
     showguides="true"
     inkscape:guide-bbox="true"
     fit-margin-top="0"
     fit-margin-left="0"
     fit-margin-right="0"
     fit-margin-bottom="0">
    <sodipodi:guide
       position="-1802.6883,-102.94737"
       orientation="0,1"
       id="guide4285" />
  </sodipodi:namedview>
  <metadata
     id="metadata7">
    <rdf:RDF>
      <cc:Work
         rdf:about="">
        <dc:format>image/svg+xml</dc:format>
        <dc:type
           rdf:resource="http://purl.org/dc/dcmitype/StillImage" />
        <dc:title></dc:title>
      </cc:Work>
    </rdf:RDF>
  </metadata>
  <g
     inkscape:label="Ebene 1"
     inkscape:groupmode="layer"
     id="layer1"
     transform="translate(988.37708,-585.35104)">
    <path
       style="fill:#000000"
       d="m -969.09362,709.63953 c -9.62794,-0.25602 -18.47217,-10.92533 -19.19167,-18.9631 l -0.062,-42.21319 c -0.0676,-46.0651 -0.12324,-43.58999 1.06467,-47.35648 2.17179,-6.88609 7.77406,-12.48835 14.66014,-14.66014 3.71938,-1.17305 2.18364,-1.12964 37.94715,-1.07255 l 32.81359,0.0524 0.82291,0.44025 c 1.13656,0.60806 2.62321,2.31482 2.90068,3.33017 0.80542,2.94728 -0.47249,5.7466 -3.19886,7.00723 l -0.92492,0.42767 -33.01568,0.10005 -33.01568,0.10005 -1.18458,0.45114 c -3.47405,1.32309 -5.94392,3.88622 -7.01645,7.28138 l -0.50309,1.59255 0,41.52413 0,41.08976 c 0.51752,5.33069 4.61375,9.49472 8.9841,9.51843 1.24041,0.25864 6.79745,0.29049 42.59322,0.24416 l 41.16671,-0.0533 c 5.61548,-0.69563 8.31287,-3.81395 9.00428,-9.00427 l 0.10005,-21.71032 0.10005,-21.7103 0.4568,-0.91758 c 2.09622,-4.21072 8.1939,-4.14505 10.17513,0.10957 l 0.46943,1.0081 0.002,21.76877 c 0.002,23.67084 -0.27097,22.75235 -1.12556,26.35408 -1.70655,7.19231 -7.29254,12.36829 -14.27985,14.27985 -3.68263,1.00747 -0.66115,1.13025 -46.86382,1.09749 -23.25318,-0.0165 -42.54864,-0.0687 -42.8788,-0.116 z m 40.2191,-39.75134 c -0.55026,-0.13446 -1.63077,-0.54757 -2.40114,-0.91801 l -34.0356,-35.22078 c -0.56569,-1.68946 -0.47846,-4.85414 0.18607,-6.74942 1.1816,-3.37007 3.87822,-6.00962 7.33694,-7.18167 1.72168,-0.58341 5.28873,-0.52918 7.00332,0.10648 l 24.67882,22.82889 56.12439,-55.56066 c 4.84686,-2.93264 10.55082,-1.86752 14.04184,1.53596 3.78164,4.53072 4.44012,9.48799 1.56057,14.05027 -23.24941,23.98535 -37.6849,38.13033 -64.89064,65.3338 l -1.70081,0.81686 c -0.93545,0.44927 -2.10601,0.90914 -2.60124,1.02193 -1.20255,0.27388 -4.06165,0.23956 -5.30252,-0.0637 z"
       id="path4252"
       inkscape:connector-curvature="0"
       sodipodi:nodetypes="ccsssscssscccssccccsccccsscsssscsccssccccccsss"
       inkscape:export-xdpi="30.171288"
       inkscape:export-ydpi="30.171288" />
    <path
       style="fill:#000000"
       d=""
       id="path4173"
       inkscape:connector-curvature="0" />
    <g
       id="g4452"
       transform="matrix(0.36160947,0,0,0.36160947,-1405.6123,360.68288)" />
  </g>
</svg>
