<?xml version="1.0" encoding="utf-8"?>
<!-- Generator: Adobe Illustrator 25.4.0, SVG Export Plug-In . SVG Version: 6.00 Build 0)  -->
<svg version="1.1" id="Calque_1" xmlns="http://www.w3.org/2000/svg" xmlns:xlink="http://www.w3.org/1999/xlink" x="0px" y="0px"
	 viewBox="0 0 40.1 40.1" style="enable-background:new 0 0 40.1 40.1;" xml:space="preserve">
<g transform="matrix(.9939 0 0 .9939.06-1023.96)">
	<path d="M22.9,1063c0,0.2-0.1,0.4-0.3,0.4h-4.8c-0.2,0-0.4-0.2-0.3-0.4l0.8-4.1c-0.6-0.5-0.9-1.3-0.9-2.1c0-1.6,1.3-2.9,2.9-2.9
		s2.9,1.3,2.9,2.9c0,0.8-0.3,1.6-0.9,2.1L22.9,1063z"/>
	<path d="M27.8,1047.6H12.4v-4.8c0-4.3,3.5-7.7,7.7-7.7c4.3,0,7.7,3.5,7.7,7.7V1047.6z M32,1047.7v-4.8c0-6.5-5.3-11.9-11.9-11.9
		c-6.5,0-11.9,5.3-11.9,11.9v4.8c-0.9,0.2-1.6,1-1.6,2v18c0,1.1,0.9,2.1,2.1,2.1h22.8c1.1,0,2.1-0.9,2.1-2.1v-18
		C33.6,1048.7,32.9,1047.9,32,1047.7"/>
</g>
</svg>
