<?xml version="1.0" encoding="utf-8"?>
<!-- Generator: Adobe Illustrator 25.4.0, SVG Export Plug-In . SVG Version: 6.00 Build 0)  -->
<svg version="1.1" id="Calque_1" xmlns="http://www.w3.org/2000/svg" xmlns:xlink="http://www.w3.org/1999/xlink" x="0px" y="0px"
	 viewBox="0 0 187 187" style="enable-background:new 0 0 187 187;" xml:space="preserve">
<style type="text/css">
	.st0{fill-rule:evenodd;clip-rule:evenodd;}
</style>
<g id="running-figure" transform="translate(0,0)">
	<path class="st0" d="M80.3,88l19.2-36.9c0.5-0.7,0.5-1.5-0.2-2.2c-0.5-0.7-1.2-1-2.2-1l-17.2,2.2l-14,23.2c-1.7,3.2-4,4.2-7.7,2.7
		c-3.7-1.7-4-3.7-2.2-7l12.2-27.9c1-2,3.2-3.5,6-4l32.7-3.7c1.7-0.2,3.2,0,4.7,0.7c0.7,0.2,18.2,8.7,19.7,10
		c1.2,1.2,2.2,2.7,2.5,4.5l3,29.7h18c4,0.2,7.2,0.7,7.5,4.2c0.5,3.7-2,5.7-6.2,6.2l-25.2,3.7c-4,0.2-7.7-2.5-8-6.2l-0.7-7
		c-0.2-1-1-1.7-2.2-2c-1-0.2-2.2,0.2-2.5,1.2l-8.2,17l24.9,18.2c2.5,2,3.7,4.7,3.5,7.2l-4.2,51.1c-0.2,5-2.7,7.7-8,7.5
		c-5.5-0.2-7.5-2.7-7.5-7.7l-0.2-47.1c-8.5-6.2-15.2-11.5-24.7-16.7l-12.2,27.7c-2,4.5-7.7,6.7-13,5c-0.5-0.2-1-0.5-1.5-0.7l0,0
		l-41.4-14c-5.7-1.7-6.5-6-5.5-9c0.7-3.2,2.7-4.7,9.5-4l37.9,6C71.1,109,75.3,97.7,80.3,88z M138.6,8.2c7.7,2.7,11.2,11.2,8,19.2
		c-3.2,7.7-12.2,12-19.9,9.5c-7.7-2.7-11.5-11.2-8.2-19.2C121.9,10,130.9,5.7,138.6,8.2z"/>
</g>
</svg>
