<?xml version="1.0" encoding="utf-8"?>
<!-- Generator: Adobe Illustrator 25.4.0, SVG Export Plug-In . SVG Version: 6.00 Build 0)  -->
<svg version="1.1" id="Calque_1" xmlns="http://www.w3.org/2000/svg" xmlns:xlink="http://www.w3.org/1999/xlink" x="0px" y="0px"
	 viewBox="0 0 40.1 40.1" style="enable-background:new 0 0 40.1 40.1;" xml:space="preserve">
<path d="M31.3,17.3L31.3,17.3H12.4v-4.7C12.4,8.4,15.8,5,20,5c2.2,0,4.1,0.9,5.6,2.4h4.9c-2-3.9-6-6.5-10.5-6.5
	c-6.5,0-11.7,5.2-11.7,11.7v4.8c-0.9,0.2-1.6,1-1.6,2v17.8c0,1.1,0.9,2,2,2h22.6c1.1,0,2-0.9,2-2V19.3
	C33.4,18.2,32.4,17.3,31.3,17.3z"/>
</svg>
